<svg width="105" height="105" viewBox="0 0 105 105" fill="none" xmlns="http://www.w3.org/2000/svg">
<path d="M0.966797 71.1725C3.33038 74.1645 5.94916 76.9458 8.79367 79.485C8.78492 79.2356 8.74992 78.9994 8.74992 78.75C8.76703 74.3098 10.1272 69.9786 12.6517 66.3258C15.1762 62.673 18.7468 59.8695 22.8943 58.2837C23.6571 57.9951 24.3241 57.4991 24.8199 56.8515C25.3157 56.2039 25.6206 55.4306 25.7002 54.6189C25.7798 53.8073 25.631 52.9895 25.2705 52.2579C24.9099 51.5263 24.3521 50.9101 23.6599 50.4788C21.7684 49.3102 20.2087 47.6754 19.1301 45.7312C18.0515 43.787 17.4902 41.5984 17.4999 39.375C17.4904 36.8261 18.2262 34.3301 19.6168 32.194C21.0074 30.0579 22.9922 28.3749 25.3269 27.3521C27.6616 26.3293 30.2443 26.0114 32.7573 26.4375C35.2704 26.8635 37.604 28.0149 39.4712 29.75C42.2061 28.1802 45.2036 27.1202 48.3174 26.6219C46.6107 24.2375 44.4415 22.221 41.939 20.6926C39.4365 19.1642 36.652 18.1552 33.7513 17.7257C30.8506 17.2962 27.8932 17.4549 25.0552 18.1925C22.2171 18.9301 19.5566 20.2314 17.2322 22.0189C14.9077 23.8064 12.9668 26.0435 11.5251 28.5969C10.0835 31.1504 9.17058 33.9679 8.8408 36.8816C8.51102 39.7953 8.77112 42.7455 9.6056 45.5566C10.4401 48.3676 11.8319 50.9819 13.698 53.2438C7.40157 57.4589 2.87132 63.8386 0.966797 71.1725ZM104.033 71.1725C102.13 63.8354 97.6 57.4523 91.3018 53.235C93.1619 50.9725 94.548 48.3592 95.378 45.5503C96.2078 42.7414 96.4645 39.7943 96.1327 36.8842C95.8008 33.9741 94.8873 31.1605 93.4463 28.6105C92.0054 26.0606 90.0664 23.8263 87.7448 22.0407C85.4231 20.2551 82.7661 18.9545 79.9317 18.2162C77.0973 17.478 74.1435 17.3171 71.2457 17.7433C68.3479 18.1694 65.5654 19.1739 63.0636 20.6968C60.5618 22.2198 58.3917 24.2303 56.6824 26.6088C59.7963 27.1069 62.7938 28.1669 65.5287 29.7369C66.8691 28.504 68.452 27.5644 70.1762 26.9779C71.9004 26.3915 73.728 26.1711 75.5422 26.331C77.3563 26.4909 79.1172 27.0274 80.7123 27.9063C82.3073 28.7852 83.7015 29.9872 84.8057 31.4355C85.91 32.8838 86.6999 34.5464 87.1252 36.3173C87.5504 38.0881 87.6016 39.9282 87.2754 41.72C86.9493 43.5117 86.2529 45.2157 85.2309 46.7231C84.2089 48.2305 82.8837 49.5081 81.3399 50.4744C80.6477 50.9057 80.0899 51.5219 79.7294 52.2535C79.3688 52.9851 79.22 53.8029 79.2996 54.6146C79.3792 55.4263 79.6842 56.1995 80.18 56.8471C80.6758 57.4947 81.3427 57.9908 82.1055 58.2794C86.2537 59.8654 89.8248 62.6695 92.3494 66.3232C94.8739 69.9769 96.2337 74.309 96.2499 78.75C96.2499 78.9994 96.2149 79.2356 96.2062 79.4806C99.0505 76.9428 101.669 74.163 104.033 71.1725Z" fill="white"/>
<path d="M82.9237 88.7425C82.4483 84.2527 80.9933 79.922 78.6611 76.056C76.329 72.1901 73.1767 68.8832 69.4268 66.3688C72.6435 62.4646 74.3939 57.5586 74.3749 52.5C74.3729 48.9951 73.5288 45.542 71.9136 42.4315C70.2984 39.321 67.9594 36.6441 65.0937 34.6263C62.2279 32.6085 58.9192 31.3089 55.4463 30.8368C51.9733 30.3647 48.4378 30.7341 45.1374 31.9137C41.837 33.0933 38.8684 35.0488 36.4815 37.6153C34.0947 40.1818 32.3594 43.2843 31.422 46.6614C30.4845 50.0386 30.3722 53.5916 31.0946 57.0212C31.817 60.4508 33.353 63.6567 35.573 66.3688C31.8231 68.8832 28.6708 72.1901 26.3387 76.056C24.0066 79.922 22.5515 84.2527 22.0762 88.7425C24.8534 90.1854 27.7309 91.4267 30.6862 92.4569C30.6774 92.26 30.6249 92.0762 30.6249 91.875C30.6432 87.435 32.0039 83.1044 34.5282 79.4518C37.0526 75.7993 40.6225 72.9955 44.7693 71.4088C45.5332 71.1207 46.2013 70.6246 46.6979 69.9766C47.1945 69.3286 47.5 68.5546 47.5796 67.7421C47.6593 66.9295 47.51 66.1109 47.1487 65.3788C46.7873 64.6467 46.2283 64.0303 45.5349 63.5994C43.6429 62.4324 42.0826 60.7987 41.0039 58.855C39.9252 56.9113 39.3642 54.7229 39.3749 52.5C39.3749 49.019 40.7577 45.6806 43.2191 43.2192C45.6806 40.7578 49.019 39.375 52.4999 39.375C55.9809 39.375 59.3193 40.7578 61.7807 43.2192C64.2421 45.6806 65.6249 49.019 65.6249 52.5C65.6356 54.7229 65.0747 56.9113 63.996 58.855C62.9172 60.7987 61.357 62.4324 59.4649 63.5994C58.7715 64.0303 58.2125 64.6467 57.8512 65.3788C57.4898 66.1109 57.3406 66.9295 57.4202 67.7421C57.4999 68.5546 57.8053 69.3286 58.302 69.9766C58.7986 70.6246 59.4667 71.1207 60.2306 71.4088C64.3773 72.9955 67.9473 75.7993 70.4716 79.4518C72.9959 83.1044 74.3566 87.435 74.3749 91.875C74.3749 92.0762 74.3224 92.26 74.3181 92.4569C77.2719 91.4266 80.1479 90.1853 82.9237 88.7425Z" fill="white"/>
</svg>
